<svg xmlns="http://www.w3.org/2000/svg" width="820.036" height="820" viewBox="0 0 820.036 820"><defs><style>.a{fill:#420c56;}.a,.d{stroke:#000;}.a,.b,.d{stroke-width:20px;}.b{fill:#f3ba4b;stroke:#fff;stroke-linecap:round;stroke-linejoin:round;}.c{font-size:220px;font-family:Courier;}.d,.f{fill:none;}.e{stroke:none;}</style></defs><g transform="translate(-760.964 72.708)"><g class="a" transform="translate(761 -72.708)"><circle class="e" cx="410" cy="410" r="410"/><circle class="f" cx="410" cy="410" r="400"/></g><path class="b" d="M543.507,952.415S537.674,886,639.132,796.133,881.966,643.043,881.966,643.043s42.857,4.988,112.127,0,75.5,51.376,75.5,51.376,18.14-13.937,16.978-71.389-24.385-104.71-57.756-119.775-74.434-18.5-96.348-45.372-38.727-25.747-85.1-42.78-40.421-19.014-150.419-25.352-291.367,0-291.367,0S305.151,531.552,354.945,710,543.507,952.415,543.507,952.415Z" transform="translate(430.087 -269.305)"/><text class="c" transform="translate(869 329.292)"><tspan x="0" y="0">ACM</tspan></text><g class="d" transform="translate(761 -72.708)"><circle class="e" cx="410" cy="410" r="410"/><circle class="f" cx="410" cy="410" r="400"/></g></g></svg>