<svg xmlns="http://www.w3.org/2000/svg" width="410.383" height="410" viewBox="0 0 410.383 410"><defs><style>.a{fill:#420c56;}.a,.d{stroke:#000;}.a,.b,.d{stroke-width:10px;}.b{fill:#f3ba4b;stroke:#fff;stroke-linecap:round;stroke-linejoin:round;}.c{font-size:110px;font-family:Courier;}.d,.f{fill:none;}.e{stroke:none;}</style></defs><g transform="translate(-760.617 73.047)"><g class="a" transform="translate(761 -73.047)"><circle class="e" cx="205" cy="205" r="205"/><circle class="f" cx="205" cy="205" r="200"/></g><path class="b" d="M441.818,669.783s-2.841-33.42,47.867-78.334,121.367-76.514,121.367-76.514,21.42,2.493,56.041,0,37.733,25.678,37.733,25.678,9.066-6.966,8.485-35.68-12.188-52.333-28.866-59.863-37.2-9.244-48.154-22.677-19.356-12.868-42.531-21.381-20.2-9.5-75.178-12.671-146.075,0-146.075,0-49.82,70.216-25.417,160.033S441.818,669.783,441.818,669.783Z" transform="translate(425.361 -364.682)"/><text class="c" transform="translate(815 127.953)"><tspan x="0" y="0">ACM</tspan></text><g class="d" transform="translate(761 -73.047)"><circle class="e" cx="205" cy="205" r="205"/><circle class="f" cx="205" cy="205" r="200"/></g></g></svg>