<svg xmlns="http://www.w3.org/2000/svg" width="205" height="205" viewBox="0 0 205 205"><defs><style>.a,.b{stroke:#000;stroke-width:5px;}.b{fill:#fff;stroke-linecap:round;stroke-linejoin:round;}.c{font-size:65px;font-family:Courier;}.d{stroke:none;}.e{fill:none;}</style></defs><g transform="translate(-761 73)"><g class="a" transform="translate(761 -73)"><circle class="d" cx="102.5" cy="102.5" r="102.5"/><circle class="e" cx="102.5" cy="102.5" r="100"/></g><path class="b" d="M388.653,517.514s-2.241-14.147,21.43-35.112,56.654-35.717,56.654-35.717,10,1.164,26.16,0,17.614,11.986,17.614,11.986,4.232-3.252,3.961-16.655S508.782,417.587,501,414.073s-17.366-4.315-22.478-10.585-9.035-6.007-19.853-9.981-9.43-4.436-35.093-5.915-72.227,0-72.227,0-16.99,34.574-7.4,69.713S388.653,517.514,388.653,517.514Z" transform="translate(423 -403)"/><text class="c" transform="translate(773 39)"><tspan x="0" y="0">ACM</tspan></text></g></svg>